<svg width="24" height="24" viewBox="0 0 24 24" fill="none" xmlns="http://www.w3.org/2000/svg">
<g clip-path="url(#clip0_93_1158)">
<path fill-rule="evenodd" clip-rule="evenodd" d="M21.4997 9.20719L5.00719 3.09375L4.99219 3.08906C4.45058 2.90258 3.85004 3.04084 3.4445 3.44538C3.03896 3.84993 2.89923 4.45012 3.08437 4.99219C3.08551 4.99731 3.08708 5.00233 3.08906 5.00719L9.20719 21.4997C9.41328 22.1028 9.98268 22.5059 10.62 22.5H10.6481C11.2987 22.495 11.8696 22.0654 12.0544 21.4416L14.2631 14.2641L21.4406 12.0553C22.0592 11.865 22.4859 11.2993 22.4992 10.6523C22.5124 10.0052 22.1091 9.42261 21.4988 9.20719H21.4997ZM21 10.6219L13.8225 12.8306C13.3481 12.9768 12.9768 13.3481 12.8306 13.8225L10.6219 21L10.6163 20.9841L4.5 4.5L20.9831 10.6144L20.9981 10.62L21 10.6219Z" fill="#1C170D"/>
</g>
<defs>
<clipPath id="clip0_93_1158">
<rect width="24" height="24" fill="white"/>
</clipPath>
</defs>
</svg>
