<svg width="27" height="26" viewBox="0 0 27 26" fill="none" xmlns="http://www.w3.org/2000/svg">
<g clip-path="url(#clip0_89_441)">
<path fill-rule="evenodd" clip-rule="evenodd" d="M21.4237 3.40709H5.39898C4.51396 3.40709 3.79651 4.12454 3.79651 5.00956V21.0343C3.79651 21.9193 4.51396 22.6367 5.39898 22.6367H21.4237C22.3087 22.6367 23.0262 21.9193 23.0262 21.0343V5.00956C23.0262 4.12454 22.3087 3.40709 21.4237 3.40709ZM21.4237 21.0343H5.39898V5.00956H21.4237V21.0343ZM16.6163 9.01574H10.2064C9.76389 9.01574 9.40516 9.37446 9.40516 9.81697V16.2269C9.40516 16.6694 9.76389 17.0281 10.2064 17.0281H16.6163C17.0588 17.0281 17.4175 16.6694 17.4175 16.2269V9.81697C17.4175 9.37446 17.0588 9.01574 16.6163 9.01574ZM15.815 15.4256H11.0076V10.6182H15.815V15.4256Z" fill="#1C170D"/>
</g>
<defs>
<clipPath id="clip0_89_441">
<rect width="25.6395" height="25.6395" fill="white" transform="translate(0.59157 0.202148)"/>
</clipPath>
</defs>
</svg>
