<svg width="61" height="60" viewBox="0 0 61 60" fill="none" xmlns="http://www.w3.org/2000/svg">
<rect width="61" height="60" rx="12" fill="#ABB79A"/>
<g clip-path="url(#clip0_12_1227)">
<path fill-rule="evenodd" clip-rule="evenodd" d="M29.125 30C29.125 30.6213 28.6213 31.125 28 31.125C27.3787 31.125 26.875 30.6213 26.875 30C26.875 29.3787 27.3787 28.875 28 28.875C28.6213 28.875 29.125 29.3787 29.125 30ZM23.875 28.875C23.2537 28.875 22.75 29.3787 22.75 30C22.75 30.6213 23.2537 31.125 23.875 31.125C24.4963 31.125 25 30.6213 25 30C25 29.3787 24.4963 28.875 23.875 28.875ZM32.125 28.875C31.5037 28.875 31 29.3787 31 30C31 30.6213 31.5037 31.125 32.125 31.125C32.7463 31.125 33.25 30.6213 33.25 30C33.25 29.3787 32.7463 28.875 32.125 28.875ZM37.75 30C37.7507 33.424 35.9553 36.5975 33.02 38.3605C30.0847 40.1234 26.4398 40.2174 23.4175 38.6081L20.2253 39.6722C19.6863 39.852 19.0919 39.7117 18.6901 39.3099C18.2883 38.9081 18.148 38.3137 18.3278 37.7747L19.3919 34.5825C17.4867 31.0006 17.9987 26.6133 20.6775 23.5664C23.3562 20.5194 27.6418 19.4497 31.4382 20.8803C35.2346 22.311 37.7483 25.943 37.75 30ZM36.25 30C36.249 26.5315 34.0787 23.4341 30.819 22.2489C27.5593 21.0637 23.9064 22.044 21.678 24.7019C19.4496 27.3598 19.1216 31.1276 20.8572 34.1306C20.9647 34.3167 20.9872 34.5399 20.9191 34.7437L19.75 38.25L23.2562 37.0809C23.3326 37.0549 23.4128 37.0416 23.4934 37.0416C23.6252 37.0418 23.7545 37.0767 23.8684 37.1428C26.4211 38.6197 29.568 38.6217 32.1225 37.148C34.6771 35.6743 36.2507 32.9491 36.25 30Z" fill="white"/>
</g>
<defs>
<clipPath id="clip0_12_1227">
<rect width="21" height="24" fill="white" transform="translate(16 18)"/>
</clipPath>
</defs>
</svg>
