<svg width="38" height="37" viewBox="0 0 38 37" fill="none" xmlns="http://www.w3.org/2000/svg">
<rect x="0.703125" y="0.142578" width="36.7031" height="36.7031" rx="6.11719" fill="#F5F0E6"/>
<g clip-path="url(#clip0_156_1252)">
<path fill-rule="evenodd" clip-rule="evenodd" d="M24.7896 14.4797H11.5994V12.7593C11.5994 12.4425 11.3426 12.1858 11.0259 12.1858C10.7092 12.1858 10.4524 12.4425 10.4524 12.7593V24.229C10.4524 24.5457 10.7092 24.8025 11.0259 24.8025C11.3426 24.8025 11.5994 24.5457 11.5994 24.229V21.9351H26.51V24.229C26.51 24.5457 26.7668 24.8025 27.0835 24.8025C27.4002 24.8025 27.657 24.5457 27.657 24.229V17.3472C27.657 15.7635 26.3732 14.4797 24.7896 14.4797ZM11.5994 15.6267H16.7607V20.7881H11.5994V15.6267ZM17.9077 20.7881V15.6267H24.7896C25.7397 15.6267 26.51 16.397 26.51 17.3472V20.7881H17.9077Z" fill="#1C170D"/>
</g>
<defs>
<clipPath id="clip0_156_1252">
<rect width="18.3516" height="18.3516" fill="white" transform="translate(9.87891 9.31836)"/>
</clipPath>
</defs>
</svg>
