<svg width="21" height="22" viewBox="0 0 21 22" fill="none" xmlns="http://www.w3.org/2000/svg">
<g clip-path="url(#clip0_90_741)">
<path fill-rule="evenodd" clip-rule="evenodd" d="M15.0302 8.16183V7.71188C15.0302 5.68589 11.9743 4.15751 7.92149 4.15751C3.8687 4.15751 0.812752 5.68589 0.812752 7.71188V10.9431C0.812752 12.6306 2.93326 13.9716 5.98274 14.3731V14.8206C5.98274 16.8466 9.03869 18.375 13.0915 18.375C17.1443 18.375 20.2002 16.8466 20.2002 14.8206V11.5894C20.2002 9.9172 18.1468 8.57462 15.0302 8.16183ZM18.9077 11.5894C18.9077 12.6573 16.4205 13.8512 13.0915 13.8512C12.7902 13.8512 12.4913 13.8407 12.1964 13.8214C13.9389 13.1864 15.0302 12.1548 15.0302 10.9431V9.46806C17.4432 9.82754 18.9077 10.8034 18.9077 11.5894ZM5.98274 13.0636V11.1418C6.62558 11.2256 7.27321 11.2672 7.92149 11.2662C8.56976 11.2672 9.21739 11.2256 9.86023 11.1418V13.0636C9.21835 13.1585 8.57034 13.2057 7.92149 13.205C7.27264 13.2057 6.62462 13.1585 5.98274 13.0636ZM13.7377 9.80653V10.9431C13.7377 11.6209 12.7352 12.3487 11.1527 12.7906V10.9027C12.1956 10.6499 13.0785 10.2734 13.7377 9.80653ZM7.92149 5.45001C11.2505 5.45001 13.7377 6.64395 13.7377 7.71188C13.7377 8.7798 11.2505 9.97375 7.92149 9.97375C4.5925 9.97375 2.10525 8.7798 2.10525 7.71188C2.10525 6.64395 4.5925 5.45001 7.92149 5.45001ZM2.10525 10.9431V9.80653C2.76442 10.2734 3.64736 10.6499 4.69024 10.9027V12.7906C3.10774 12.3487 2.10525 11.6209 2.10525 10.9431ZM7.27524 14.8206V14.4838C7.48769 14.4918 7.70257 14.4975 7.92149 14.4975C8.23492 14.4975 8.54108 14.487 8.84158 14.4692C9.17542 14.5887 9.51546 14.6901 9.86023 14.773V16.6681C8.27773 16.2262 7.27524 15.4984 7.27524 14.8206ZM11.1527 16.9411V15.0145C11.7954 15.1009 12.4431 15.1441 13.0915 15.1437C13.7397 15.1447 14.3874 15.1031 15.0302 15.0193V16.9411C13.7446 17.1296 12.4384 17.1296 11.1527 16.9411ZM16.3227 16.6681V14.7802C17.3656 14.5274 18.2485 14.1509 18.9077 13.684V14.8206C18.9077 15.4984 17.9052 16.2262 16.3227 16.6681Z" fill="#1C170D"/>
</g>
<defs>
<clipPath id="clip0_90_741">
<rect width="20.68" height="20.68" fill="white" transform="translate(0.166504 0.92627)"/>
</clipPath>
</defs>
</svg>
