<svg width="26" height="26" viewBox="0 0 26 26" fill="none" xmlns="http://www.w3.org/2000/svg">
<g clip-path="url(#clip0_89_431)">
<path fill-rule="evenodd" clip-rule="evenodd" d="M12.9171 2.60585C7.16446 2.60585 2.50103 7.26928 2.50103 13.0219C2.50103 18.7745 7.16446 23.438 12.9171 23.438C18.6697 23.438 23.3331 18.7745 23.3331 13.0219C23.3271 7.2718 18.6672 2.61193 12.9171 2.60585ZM12.9171 21.8355C8.04948 21.8355 4.1035 17.8895 4.1035 13.0219C4.1035 8.1543 8.04948 4.20833 12.9171 4.20833C17.7847 4.20833 21.7307 8.1543 21.7307 13.0219C21.7252 17.8872 17.7824 21.83 12.9171 21.8355ZM14.5196 17.8293C14.5196 18.2718 14.1608 18.6306 13.7183 18.6306C12.8333 18.6306 12.1159 17.9131 12.1159 17.0281V13.0219C11.6733 13.0219 11.3146 12.6632 11.3146 12.2207C11.3146 11.7782 11.6733 11.4194 12.1159 11.4194C13.0009 11.4194 13.7183 12.1369 13.7183 13.0219V17.0281C14.1608 17.0281 14.5196 17.3868 14.5196 17.8293ZM11.3146 8.61512C11.3146 7.95136 11.8527 7.41327 12.5165 7.41327C13.1802 7.41327 13.7183 7.95136 13.7183 8.61512C13.7183 9.27889 13.1802 9.81697 12.5165 9.81697C11.8527 9.81697 11.3146 9.27889 11.3146 8.61512Z" fill="#1C170D"/>
</g>
<defs>
<clipPath id="clip0_89_431">
<rect width="25.6395" height="25.6395" fill="white" transform="translate(0.0973206 0.202148)"/>
</clipPath>
</defs>
</svg>
