<svg width="38" height="37" viewBox="0 0 38 37" fill="none" xmlns="http://www.w3.org/2000/svg">
<rect x="0.703125" y="0.306641" width="36.7031" height="36.7031" rx="6.11719" fill="#F5F0E6"/>
<g clip-path="url(#clip0_156_1282)">
<path fill-rule="evenodd" clip-rule="evenodd" d="M21.6705 21.2038C22.0056 21.54 22.005 22.0841 21.6691 22.4196C21.3332 22.7551 20.7891 22.7551 20.4533 22.4196C20.1174 22.0841 20.1168 21.54 20.4518 21.2038C20.6133 21.0418 20.8325 20.9508 21.0612 20.9508C21.2898 20.9508 21.5091 21.0418 21.6705 21.2038ZM15.864 20.6303C15.5289 20.9665 15.5295 21.5107 15.8654 21.8461C16.2012 22.1816 16.7453 22.1816 17.0812 21.8461C17.4171 21.5107 17.4177 20.9665 17.0826 20.6303C16.9213 20.4687 16.7023 20.378 16.474 20.378C16.2457 20.378 16.0267 20.4687 15.8654 20.6303H15.864ZM16.5091 17.8345C16.8442 17.4983 16.8436 16.9542 16.5077 16.6187C16.1719 16.2832 15.6277 16.2832 15.2919 16.6187C14.956 16.9542 14.9554 17.4983 15.2905 17.8345C15.4521 17.9963 15.6714 18.0871 15.9001 18.0868C16.1288 18.0866 16.3479 17.9953 16.5091 17.8331V17.8345ZM19.95 17.7628C19.6138 17.4278 19.0697 17.4284 18.7342 17.7643C18.3987 18.1001 18.3987 18.6442 18.7342 18.9801C19.0697 19.316 19.6138 19.3166 19.95 18.9815C20.112 18.8201 20.2031 18.6008 20.2031 18.3722C20.2031 18.1435 20.112 17.9243 19.95 17.7628ZM26.51 18.6582C26.51 22.7757 23.1721 26.1135 19.0547 26.1135C14.9372 26.1135 11.5994 22.7757 11.5994 18.6582C11.5994 14.5407 14.9372 11.2029 19.0547 11.2029C19.3714 11.2029 19.6282 11.4596 19.6282 11.7764C19.6282 13.36 20.912 14.6438 22.4956 14.6438C22.8123 14.6438 23.0691 14.9006 23.0691 15.2173C23.0691 16.8009 24.3529 18.0847 25.9365 18.0847C26.2533 18.0847 26.51 18.3415 26.51 18.6582ZM25.3408 19.188C23.5768 18.9202 22.1997 17.5227 21.958 15.7549C20.1902 15.5132 18.7927 14.1361 18.5249 12.3721C15.1901 12.6532 12.6551 15.4896 12.7489 18.8349C12.8427 22.1803 15.5326 24.8702 18.878 24.964C22.2233 25.0578 25.0597 22.5228 25.3408 19.188Z" fill="#1C170D"/>
</g>
<defs>
<clipPath id="clip0_156_1282">
<rect width="18.3516" height="18.3516" fill="white" transform="translate(9.87891 9.48242)"/>
</clipPath>
</defs>
</svg>
