<svg width="24" height="24" viewBox="0 0 24 24" fill="none" xmlns="http://www.w3.org/2000/svg">
<g clip-path="url(#clip0_517_890)">
<path fill-rule="evenodd" clip-rule="evenodd" d="M22.2375 14.2378C22.1749 14.063 22.1013 13.8924 22.0172 13.7269L18.1181 4.85625C18.0812 4.77081 18.0284 4.69318 17.9625 4.6275C17.3999 4.06474 16.6367 3.74858 15.8409 3.74858C15.0452 3.74858 14.282 4.06474 13.7194 4.6275C13.5792 4.76781 13.5003 4.95793 13.5 5.15625V7.5H10.5V5.15625C10.5002 4.95728 10.4212 4.7664 10.2806 4.62563C9.718 4.06287 8.95483 3.7467 8.15906 3.7467C7.36329 3.7467 6.60013 4.06287 6.0375 4.62563C5.97158 4.69131 5.91876 4.76894 5.88188 4.85437L1.98281 13.725C1.89871 13.8905 1.82512 14.0612 1.7625 14.2359C1.15902 15.9245 1.61563 17.8102 2.92473 19.0356C4.23383 20.2611 6.14553 20.5923 7.79061 19.8788C9.4357 19.1653 10.5002 17.5432 10.5 15.75V9H13.5V15.75C13.4991 17.5434 14.5631 19.1661 16.2082 19.8802C17.8533 20.5942 19.7654 20.2633 21.0748 19.0379C22.3842 17.8125 22.8411 15.9266 22.2375 14.2378ZM7.19156 5.60156C7.70539 5.16892 8.44419 5.13062 9 5.50781V12.3994C7.80829 11.3293 6.13685 10.9749 4.61344 11.4694L7.19156 5.60156ZM6 18.75C4.34315 18.75 3 17.4069 3 15.75C3 14.0931 4.34315 12.75 6 12.75C7.65685 12.75 9 14.0931 9 15.75C9 17.4069 7.65685 18.75 6 18.75ZM15 5.50688C15.5558 5.12969 16.2946 5.16798 16.8084 5.60063L19.3866 11.4675C17.863 10.9733 16.1915 11.328 15 12.3984V5.50688ZM18 18.75C16.3431 18.75 15 17.4069 15 15.75C15 14.0931 16.3431 12.75 18 12.75C19.6569 12.75 21 14.0931 21 15.75C21 17.4069 19.6569 18.75 18 18.75Z" fill="#1C170D"/>
</g>
<defs>
<clipPath id="clip0_517_890">
<rect width="24" height="24" fill="white"/>
</clipPath>
</defs>
</svg>
