<svg width="38" height="37" viewBox="0 0 38 37" fill="none" xmlns="http://www.w3.org/2000/svg">
<rect x="0.703125" y="0.0878906" width="36.7031" height="36.7031" rx="6.11719" fill="#F5F0E6"/>
<g clip-path="url(#clip0_156_1242)">
<path fill-rule="evenodd" clip-rule="evenodd" d="M25.9365 24.7478C25.9365 25.0645 25.6798 25.3213 25.363 25.3213H15.0403C14.7236 25.3213 14.4668 25.0645 14.4668 24.7478C14.4668 24.4311 14.7236 24.1743 15.0403 24.1743H25.363C25.6798 24.1743 25.9365 24.4311 25.9365 24.7478ZM27.657 19.0129V20.7334C27.657 21.0501 27.4002 21.3069 27.0835 21.3069H14.2568C12.9885 21.3127 11.8691 20.4796 11.5105 19.2631L10.5019 15.9018C10.3977 15.5547 10.4637 15.1787 10.6798 14.8878C10.896 14.597 11.237 14.4254 11.5994 14.425H12.1729C12.3247 14.4251 12.4704 14.4854 12.5779 14.5928L14.1313 16.1455H15.7435L15.0983 14.2143C14.9817 13.8644 15.0404 13.4797 15.2562 13.1806C15.472 12.8815 15.8184 12.7043 16.1873 12.7046H16.7607C16.9129 12.7045 17.0588 12.7648 17.1665 12.8723L20.4397 16.1455H24.7896C26.3732 16.1455 27.657 17.4293 27.657 19.0129ZM26.51 19.0129C26.51 18.0628 25.7397 17.2925 24.7896 17.2925H20.2017C20.0498 17.2924 19.9041 17.2321 19.7966 17.1247L16.5235 13.8516H16.1873L17.0826 16.5376C17.1409 16.7124 17.1116 16.9045 17.004 17.054C16.8964 17.2036 16.7235 17.2923 16.5392 17.2925H13.8933C13.7412 17.2926 13.5952 17.2323 13.4876 17.1247L11.9356 15.572H11.5994L12.608 18.9341C12.8234 19.6642 13.4956 20.1639 14.2568 20.1599H26.51V19.0129Z" fill="#1C170D"/>
</g>
<defs>
<clipPath id="clip0_156_1242">
<rect width="18.3516" height="18.3516" fill="white" transform="translate(9.87891 9.26367)"/>
</clipPath>
</defs>
</svg>
