<svg width="25" height="24" viewBox="0 0 25 24" fill="none" xmlns="http://www.w3.org/2000/svg">
<g clip-path="url(#clip0_99_1842)">
<path fill-rule="evenodd" clip-rule="evenodd" d="M8.73312 18.4041C8.67394 18.9849 8.35784 19.5087 7.87156 19.8319C7.385 20.1562 6.78125 20.25 6.23187 20.25C5.75278 20.247 5.27595 20.184 4.8125 20.0625C4.41858 19.9471 4.19058 19.5365 4.3009 19.1412C4.41122 18.7458 4.81888 18.5126 5.21562 18.6178C5.62625 18.7303 6.61719 18.8709 7.04844 18.5841C7.13094 18.5287 7.22 18.4416 7.24906 18.2156C7.28188 17.9653 7.1825 17.8312 6.05094 17.5041C5.17438 17.2509 3.70719 16.8263 3.89469 15.3375C3.95377 14.7682 4.26295 14.2546 4.73844 13.9359C5.84844 13.1859 7.61844 13.6256 7.81625 13.6772C8.217 13.7826 8.45646 14.1928 8.35109 14.5936C8.24573 14.9943 7.83544 15.2338 7.43469 15.1284C7.01469 15.0187 6.00688 14.8884 5.57562 15.1809C5.46091 15.2583 5.39098 15.3867 5.38812 15.525C5.37781 15.6094 5.375 15.6272 5.49312 15.7031C5.70969 15.8428 6.09688 15.9544 6.47281 16.0631C7.39062 16.3284 8.94312 16.7812 8.73312 18.4041ZM20.75 8.25V10.5C20.75 10.9142 20.4142 11.25 20 11.25C19.5858 11.25 19.25 10.9142 19.25 10.5V9H14.75C14.3358 9 14 8.66421 14 8.25V3.75H5.75V10.5C5.75 10.9142 5.41421 11.25 5 11.25C4.58579 11.25 4.25 10.9142 4.25 10.5V3.75C4.25 2.92157 4.92157 2.25 5.75 2.25H14.75C14.9486 2.25009 15.1391 2.32899 15.2797 2.46937L20.5297 7.71938C20.6706 7.85999 20.7499 8.05089 20.75 8.25ZM15.5 7.5H18.1897L15.5 4.81031V7.5ZM14.2531 13.5441C14.0658 13.477 13.8595 13.4871 13.6796 13.5722C13.4997 13.6573 13.361 13.8104 13.2941 13.9978L12.125 17.2697L10.9559 13.9978C10.872 13.7374 10.653 13.5434 10.3844 13.4915C10.1158 13.4396 9.84028 13.538 9.66539 13.7483C9.49049 13.9587 9.44399 14.2476 9.54406 14.5022L11.4191 19.7522C11.5256 20.0508 11.8084 20.2502 12.1255 20.2502C12.4425 20.2502 12.7254 20.0508 12.8319 19.7522L14.7069 14.5022C14.8459 14.1123 14.6429 13.6835 14.2531 13.5441ZM20 16.5H19.25C18.8358 16.5 18.5 16.8358 18.5 17.25C18.5 17.6642 18.8358 18 19.25 18V18.4959C19.034 18.6594 18.7709 18.7485 18.5 18.75C17.6731 18.75 17 17.9062 17 16.875C17 15.8438 17.6731 15 18.5 15C18.7525 15.001 18.9987 15.0788 19.2059 15.2231C19.549 15.4465 20.0078 15.3535 20.2368 15.0142C20.4659 14.6749 20.3805 14.2146 20.045 13.98C19.5897 13.6689 19.0514 13.5017 18.5 13.5C16.8463 13.5 15.5 15.0141 15.5 16.875C15.5 18.7359 16.8463 20.25 18.5 20.25C19.2755 20.2437 20.0141 19.9182 20.5419 19.35C20.6754 19.2104 20.75 19.0247 20.75 18.8316V17.25C20.75 16.8358 20.4142 16.5 20 16.5Z" fill="#1C170D"/>
</g>
<defs>
<clipPath id="clip0_99_1842">
<rect width="24" height="24" fill="white" transform="translate(0.5)"/>
</clipPath>
</defs>
</svg>
