<svg width="24" height="23" viewBox="0 0 24 23" fill="none" xmlns="http://www.w3.org/2000/svg">
<g clip-path="url(#clip0_517_925)">
<path fill-rule="evenodd" clip-rule="evenodd" d="M20.25 7.25H16.9613C16.9978 7.21906 17.0353 7.18906 17.0709 7.15625C17.6465 6.64489 17.9832 5.91693 18 5.14719C18.0249 4.30528 17.7014 3.49038 17.106 2.89472C16.5105 2.29905 15.6957 1.97536 14.8538 2C14.0837 2.01659 13.3553 2.35324 12.8438 2.92906C12.4936 3.3349 12.2089 3.79291 12 4.28656C11.7911 3.79291 11.5064 3.3349 11.1562 2.92906C10.6447 2.35324 9.91632 2.01659 9.14625 2C8.30434 1.97536 7.48953 2.29905 6.89405 2.89472C6.29856 3.49038 5.97511 4.30528 6 5.14719C6.01685 5.91693 6.35348 6.64489 6.92906 7.15625C6.96469 7.18719 7.00219 7.21719 7.03875 7.25H3.75C2.92157 7.25 2.25 7.92157 2.25 8.75V11.75C2.25 12.5784 2.92157 13.25 3.75 13.25V19.25C3.75 20.0784 4.42157 20.75 5.25 20.75H18.75C19.5784 20.75 20.25 20.0784 20.25 19.25V13.25C21.0784 13.25 21.75 12.5784 21.75 11.75V8.75C21.75 7.92157 21.0784 7.25 20.25 7.25ZM13.9688 3.92281C14.2088 3.6577 14.5486 3.50479 14.9062 3.50094H14.9522C15.3711 3.50356 15.7712 3.67471 16.0624 3.9758C16.3536 4.27688 16.5113 4.68253 16.5 5.10125C16.4961 5.45888 16.3432 5.79868 16.0781 6.03875C15.1884 6.82625 13.7119 7.10375 12.7969 7.20125C12.9094 6.20844 13.2188 4.76562 13.9688 3.92281ZM7.96031 3.95656C8.25088 3.66602 8.64441 3.50194 9.05531 3.5H9.10125C9.45888 3.50386 9.79868 3.65677 10.0387 3.92188C10.8253 4.81063 11.1028 6.28437 11.2003 7.19562C10.2891 7.10187 8.81531 6.82062 7.92656 6.03406C7.66145 5.79399 7.50854 5.45419 7.50469 5.09656C7.49294 4.67073 7.65626 4.2587 7.95656 3.95656H7.96031ZM3.75 8.75H11.25V11.75H3.75V8.75ZM5.25 13.25H11.25V19.25H5.25V13.25ZM18.75 19.25H12.75V13.25H18.75V19.25ZM20.25 11.75H12.75V8.75H20.25V11.75Z" fill="#1C170D"/>
</g>
<defs>
<clipPath id="clip0_517_925">
<rect width="24" height="22" fill="white" transform="translate(0 0.5)"/>
</clipPath>
</defs>
</svg>
