<svg width="38" height="37" viewBox="0 0 38 37" fill="none" xmlns="http://www.w3.org/2000/svg">
<rect x="0.703125" y="0.251953" width="36.7031" height="36.7031" rx="6.11719" fill="#F5F0E6"/>
<g clip-path="url(#clip0_156_1272)">
<path fill-rule="evenodd" clip-rule="evenodd" d="M25.7258 17.3583L24.7896 17.0458V13.4421C24.7896 12.8087 24.276 12.2952 23.6426 12.2952H19.6282V11.1482C19.6282 10.8315 19.3714 10.5747 19.0547 10.5747C18.738 10.5747 18.4812 10.8315 18.4812 11.1482V12.2952H14.4668C13.8333 12.2952 13.3198 12.8087 13.3198 13.4421V17.0458L12.3836 17.3583C11.915 17.5146 11.599 17.9533 11.5994 18.4472V20.9046C11.5992 20.9578 11.6067 21.0106 11.6216 21.0616C12.7485 25.0108 17.7952 26.3707 18.7952 26.6029C18.966 26.6421 19.1434 26.6421 19.3142 26.6029C20.3142 26.3707 25.3609 25.0108 26.4878 21.0616C26.5027 21.0106 26.5102 20.9578 26.51 20.9046V18.4472C26.5104 17.9533 26.1944 17.5146 25.7258 17.3583ZM14.4668 13.4421H23.6426V16.663L19.2361 15.192C19.1183 15.1527 18.991 15.1527 18.8733 15.192L14.4668 16.663V13.4421ZM25.363 20.8215C24.9487 22.1835 23.8899 23.3427 22.2124 24.271C21.2171 24.8113 20.1556 25.2196 19.0547 25.4854C17.955 25.2193 16.8947 24.8111 15.9005 24.271C14.2202 23.3427 13.1607 22.1828 12.7463 20.8215V18.4465L18.4812 16.5325V21.4709C18.4812 21.7877 18.738 22.0444 19.0547 22.0444C19.3714 22.0444 19.6282 21.7877 19.6282 21.4709V16.5325L25.363 18.4472V20.8215Z" fill="#1C170D"/>
</g>
<defs>
<clipPath id="clip0_156_1272">
<rect width="18.3516" height="18.3516" fill="white" transform="translate(9.87891 9.42773)"/>
</clipPath>
</defs>
</svg>
