<svg width="21" height="22" viewBox="0 0 21 22" fill="none" xmlns="http://www.w3.org/2000/svg">
<g clip-path="url(#clip0_90_735)">
<path fill-rule="evenodd" clip-rule="evenodd" d="M19.554 5.16485V10.3348C19.554 10.6918 19.2646 10.9811 18.9077 10.9811C18.5508 10.9811 18.2615 10.6918 18.2615 10.3348V6.72474L11.61 13.3771C11.4887 13.4984 11.3242 13.5666 11.1527 13.5666C10.9812 13.5666 10.8167 13.4984 10.6955 13.3771L7.92149 10.6022L2.56247 15.962C2.30995 16.2146 1.90054 16.2146 1.64803 15.962C1.39551 15.7095 1.39551 15.3001 1.64803 15.0476L7.46427 9.23137C7.58548 9.11002 7.74997 9.04184 7.92149 9.04184C8.09301 9.04184 8.25749 9.11002 8.37871 9.23137L11.1527 12.0062L17.3478 5.8111H13.7377C13.3808 5.8111 13.0915 5.52177 13.0915 5.16485C13.0915 4.80794 13.3808 4.5186 13.7377 4.5186H18.9077C19.2646 4.5186 19.554 4.80794 19.554 5.16485Z" fill="#1C170D"/>
</g>
<defs>
<clipPath id="clip0_90_735">
<rect width="20.68" height="20.68" fill="white" transform="translate(0.166504 0.641113)"/>
</clipPath>
</defs>
</svg>
