<svg width="38" height="37" viewBox="0 0 38 37" fill="none" xmlns="http://www.w3.org/2000/svg">
<rect x="0.703125" y="0.197266" width="36.7031" height="36.7031" rx="6.11719" fill="#F5F0E6"/>
<g clip-path="url(#clip0_156_1262)">
<path fill-rule="evenodd" clip-rule="evenodd" d="M19.0547 13.9609C17.471 13.9609 16.1873 15.2447 16.1873 16.8284C16.1873 18.412 17.471 19.6958 19.0547 19.6958C20.6383 19.6958 21.9221 18.412 21.9221 16.8284C21.9221 15.2447 20.6383 13.9609 19.0547 13.9609ZM19.0547 18.5488C18.1045 18.5488 17.3342 17.7786 17.3342 16.8284C17.3342 15.8782 18.1045 15.1079 19.0547 15.1079C20.0049 15.1079 20.7751 15.8782 20.7751 16.8284C20.7751 17.7786 20.0049 18.5488 19.0547 18.5488ZM19.0547 10.52C15.5723 10.524 12.7503 13.346 12.7463 16.8284C12.7463 19.0793 13.7865 21.465 15.7571 23.7281C16.6426 24.7508 17.6392 25.6716 18.7285 26.4737C18.9261 26.6121 19.1891 26.6121 19.3866 26.4737C20.4739 25.6713 21.4685 24.7504 22.3522 23.7281C24.32 21.465 25.363 19.0793 25.363 16.8284C25.3591 13.346 22.5371 10.524 19.0547 10.52ZM19.0547 25.2873C17.8697 24.3554 13.8933 20.9324 13.8933 16.8284C13.8933 13.9778 16.2041 11.667 19.0547 11.667C21.9052 11.667 24.2161 13.9778 24.2161 16.8284C24.2161 20.9309 20.2397 24.3554 19.0547 25.2873Z" fill="#1C170D"/>
</g>
<defs>
<clipPath id="clip0_156_1262">
<rect width="18.3516" height="18.3516" fill="white" transform="translate(9.87891 9.37305)"/>
</clipPath>
</defs>
</svg>
