<svg width="24" height="24" viewBox="0 0 24 24" fill="none" xmlns="http://www.w3.org/2000/svg">
<g clip-path="url(#clip0_517_897)">
<path fill-rule="evenodd" clip-rule="evenodd" d="M21 4.5C21 4.91421 20.6642 5.25 20.25 5.25H18.75V19.5C18.75 19.9142 18.4142 20.25 18 20.25H14.25C13.9769 20.2498 13.7255 20.1011 13.5938 19.8619L6.75 7.42031V18.75H8.25C8.66421 18.75 9 19.0858 9 19.5C9 19.9142 8.66421 20.25 8.25 20.25H3.75C3.33579 20.25 3 19.9142 3 19.5C3 19.0858 3.33579 18.75 3.75 18.75H5.25V5.25H3.75C3.33579 5.25 3 4.91421 3 4.5C3 4.08579 3.33579 3.75 3.75 3.75H9.75C10.0231 3.75024 10.2745 3.89892 10.4062 4.13812L17.25 16.5797V5.25H15.75C15.3358 5.25 15 4.91421 15 4.5C15 4.08579 15.3358 3.75 15.75 3.75H20.25C20.6642 3.75 21 4.08579 21 4.5Z" fill="#1C170D"/>
</g>
<defs>
<clipPath id="clip0_517_897">
<rect width="24" height="24" fill="white"/>
</clipPath>
</defs>
</svg>
