<svg width="25" height="24" viewBox="0 0 25 24" fill="none" xmlns="http://www.w3.org/2000/svg">
<g clip-path="url(#clip0_99_1856)">
<path fill-rule="evenodd" clip-rule="evenodd" d="M12.5 2.25C7.11522 2.25 2.75 6.61522 2.75 12C2.75 17.3848 7.11522 21.75 12.5 21.75C17.8848 21.75 22.25 17.3848 22.25 12C22.2443 6.61758 17.8824 2.25568 12.5 2.25ZM12.5 20.25C7.94365 20.25 4.25 16.5563 4.25 12C4.25 7.44365 7.94365 3.75 12.5 3.75C17.0563 3.75 20.75 7.44365 20.75 12C20.7448 16.5542 17.0542 20.2448 12.5 20.25ZM13.625 12C13.625 12.6213 13.1213 13.125 12.5 13.125C11.8787 13.125 11.375 12.6213 11.375 12C11.375 11.3787 11.8787 10.875 12.5 10.875C13.1213 10.875 13.625 11.3787 13.625 12ZM17.75 12C17.75 12.6213 17.2463 13.125 16.625 13.125C16.0037 13.125 15.5 12.6213 15.5 12C15.5 11.3787 16.0037 10.875 16.625 10.875C17.2463 10.875 17.75 11.3787 17.75 12ZM9.5 12C9.5 12.6213 8.99632 13.125 8.375 13.125C7.75368 13.125 7.25 12.6213 7.25 12C7.25 11.3787 7.75368 10.875 8.375 10.875C8.99632 10.875 9.5 11.3787 9.5 12Z" fill="#1C170D"/>
</g>
<defs>
<clipPath id="clip0_99_1856">
<rect width="24" height="24" fill="white" transform="translate(0.5)"/>
</clipPath>
</defs>
</svg>
