<svg width="24" height="24" viewBox="0 0 24 24" fill="none" xmlns="http://www.w3.org/2000/svg">
<g clip-path="url(#clip0_93_1168)">
<path fill-rule="evenodd" clip-rule="evenodd" d="M22.7953 10.9022L13.0978 1.20469C12.8067 0.913519 12.4118 0.749942 12 0.749942C11.5882 0.749942 11.1933 0.913519 10.9022 1.20469L1.20469 10.9022C0.913519 11.1933 0.749942 11.5882 0.749942 12C0.749942 12.4118 0.913519 12.8067 1.20469 13.0978L10.9022 22.7953C11.1933 23.0865 11.5882 23.2501 12 23.2501C12.4118 23.2501 12.8067 23.0865 13.0978 22.7953L22.7953 13.0978C23.0865 12.8067 23.2501 12.4118 23.2501 12C23.2501 11.5882 23.0865 11.1933 22.7953 10.9022ZM21.735 12.0366L12.0375 21.735C12.0165 21.755 11.9835 21.755 11.9625 21.735L2.265 12.0366C2.24523 12.0162 2.24523 11.9838 2.265 11.9634L11.9625 2.265C11.9835 2.245 12.0165 2.245 12.0375 2.265L21.735 11.9634C21.7548 11.9838 21.7548 12.0162 21.735 12.0366ZM16.2806 10.7241C16.4215 10.8647 16.5006 11.0556 16.5006 11.2547C16.5006 11.4537 16.4215 11.6446 16.2806 11.7853L14.0306 14.0353C13.7376 14.3284 13.2624 14.3284 12.9694 14.0353C12.6763 13.7423 12.6763 13.2671 12.9694 12.9741L13.9397 12H10.5C9.67157 12 9 12.6716 9 13.5V14.25C9 14.6642 8.66421 15 8.25 15C7.83579 15 7.5 14.6642 7.5 14.25V13.5C7.5 11.8431 8.84315 10.5 10.5 10.5H13.9397L12.9694 9.53063C12.6763 9.23757 12.6763 8.76243 12.9694 8.46937C13.2624 8.17632 13.7376 8.17632 14.0306 8.46937L16.2806 10.7241Z" fill="#1C170D"/>
</g>
<defs>
<clipPath id="clip0_93_1168">
<rect width="24" height="24" fill="white"/>
</clipPath>
</defs>
</svg>
