<svg width="26" height="26" viewBox="0 0 26 26" fill="none" xmlns="http://www.w3.org/2000/svg">
<g clip-path="url(#clip0_89_451)">
<path fill-rule="evenodd" clip-rule="evenodd" d="M24.1229 12.8847C23.7497 8.60593 20.9752 4.91199 16.9698 3.36135C12.9645 1.8107 8.42588 2.67339 5.26881 5.58545C3.20288 7.48338 1.92651 10.089 1.69329 12.8847C1.65485 13.3321 1.80585 13.775 2.10954 14.1058C2.41323 14.4365 2.84175 14.6246 3.29076 14.6244H12.1043V20.233C12.1043 22.0031 13.5392 23.438 15.3093 23.438C17.0793 23.438 18.5142 22.0031 18.5142 20.233C18.5142 19.7905 18.1555 19.4318 17.713 19.4318C17.2705 19.4318 16.9118 19.7905 16.9118 20.233C16.9118 21.1181 16.1943 21.8355 15.3093 21.8355C14.4243 21.8355 13.7068 21.1181 13.7068 20.233V14.6244H22.5204C22.9703 14.626 23.4001 14.4385 23.7049 14.1076C24.0097 13.7767 24.1614 13.3329 24.1229 12.8847ZM3.29076 13.0219C3.65541 8.78358 6.75781 5.28665 10.9225 4.41965C9.74872 6.01111 8.28346 8.82645 8.1152 13.0219H3.29076ZM9.71566 13.0219C9.85488 9.94016 10.7703 7.73276 11.5485 6.38769C11.9322 5.71951 12.3872 5.0949 12.9056 4.52481C13.423 5.09499 13.877 5.7196 14.2597 6.38769C15.5897 8.68523 16.0104 11.147 16.0925 13.0219H9.71566ZM17.693 13.0219C17.5247 8.82645 16.0594 6.01111 14.8886 4.41464C19.0564 5.27978 22.1604 8.78056 22.5204 13.0219H17.693Z" fill="#1C170D"/>
</g>
<defs>
<clipPath id="clip0_89_451">
<rect width="25.6395" height="25.6395" fill="white" transform="translate(0.0858154 0.202148)"/>
</clipPath>
</defs>
</svg>
