<svg width="17" height="20" viewBox="0 0 17 20" fill="none" xmlns="http://www.w3.org/2000/svg">
<path fill-rule="evenodd" clip-rule="evenodd" d="M16.5306 5.71938L11.2806 0.469375C11.1399 0.328758 10.949 0.249844 10.75 0.25H1.75C0.921573 0.25 0.25 0.921573 0.25 1.75V18.25C0.25 19.0784 0.921573 19.75 1.75 19.75H15.25C16.0784 19.75 16.75 19.0784 16.75 18.25V6.25C16.7502 6.05103 16.6712 5.86015 16.5306 5.71938ZM11.5 2.81031L14.1897 5.5H11.5V2.81031ZM15.25 18.25H1.75V1.75H10V6.25C10 6.66421 10.3358 7 10.75 7H15.25V18.25ZM11.2806 10.9694C11.5737 11.2624 11.5737 11.7376 11.2806 12.0306C10.9876 12.3237 10.5124 12.3237 10.2194 12.0306L9.25 11.0603V15.25C9.25 15.6642 8.91421 16 8.5 16C8.08579 16 7.75 15.6642 7.75 15.25V11.0603L6.78063 12.0306C6.48757 12.3237 6.01243 12.3237 5.71937 12.0306C5.42632 11.7376 5.42632 11.2624 5.71937 10.9694L7.96937 8.71937C8.11005 8.57854 8.30094 8.49941 8.5 8.49941C8.69906 8.49941 8.88995 8.57854 9.03063 8.71937L11.2806 10.9694Z" fill="#1C170D"/>
</svg>
