<svg width="22" height="16" viewBox="0 0 22 16" fill="none" xmlns="http://www.w3.org/2000/svg">
<path fill-rule="evenodd" clip-rule="evenodd" d="M20.2991 5.795C20.9976 5.65288 21.4996 5.03878 21.5 4.32594V2C21.5 1.17157 20.8284 0.5 20 0.5H2C1.17157 0.5 0.5 1.17157 0.5 2V4.32594C0.500391 5.03878 1.00241 5.65288 1.70094 5.795C2.74526 6.01157 3.49406 6.93158 3.49406 7.99813C3.49406 9.06467 2.74526 9.98468 1.70094 10.2013C1.00103 10.3437 0.498606 10.9598 0.5 11.6741V14C0.5 14.8284 1.17157 15.5 2 15.5H20C20.8284 15.5 21.5 14.8284 21.5 14V11.6741C21.4996 10.9612 20.9976 10.3471 20.2991 10.205C19.2547 9.98843 18.5059 9.06842 18.5059 8.00187C18.5059 6.93533 19.2547 6.01532 20.2991 5.79875V5.795ZM2 11.675C3.74665 11.3192 5.00145 9.783 5.00145 8.00047C5.00145 6.21794 3.74665 4.68175 2 4.32594V2H7.25V14H2V11.675ZM20 11.675V14H8.75V2H20V4.325C18.2533 4.68081 16.9985 6.217 16.9985 7.99953C16.9985 9.78206 18.2533 11.3182 20 11.6741V11.675Z" fill="#0D1C1C"/>
</svg>
