<svg width="40" height="40" viewBox="0 0 40 40" fill="none" xmlns="http://www.w3.org/2000/svg">
<rect width="40" height="40" rx="12" fill="#E8F2F2"/>
<g clip-path="url(#clip0_475_867)">
<path fill-rule="evenodd" clip-rule="evenodd" d="M20 11.875C15.5127 11.875 11.875 15.5127 11.875 20C11.875 24.4873 15.5127 28.125 20 28.125C24.4873 28.125 28.125 24.4873 28.125 20C28.1203 15.5146 24.4853 11.8797 20 11.875ZM17.9398 23.125H22.0602C21.6406 24.5578 20.9375 25.8492 20 26.8664C19.0625 25.8492 18.3594 24.5578 17.9398 23.125ZM17.6562 21.875C17.449 20.6336 17.449 19.3664 17.6562 18.125H22.3438C22.551 19.3664 22.551 20.6336 22.3438 21.875H17.6562ZM13.125 20C13.1245 19.366 13.212 18.7349 13.3852 18.125H16.3898C16.2034 19.368 16.2034 20.632 16.3898 21.875H13.3852C13.212 21.2651 13.1245 20.634 13.125 20ZM22.0602 16.875H17.9398C18.3594 15.4422 19.0625 14.1508 20 13.1336C20.9375 14.1508 21.6406 15.4422 22.0602 16.875ZM23.6102 18.125H26.6148C26.9617 19.3509 26.9617 20.6491 26.6148 21.875H23.6102C23.7966 20.632 23.7966 19.368 23.6102 18.125ZM26.1227 16.875H23.3547C23.0357 15.6199 22.5001 14.4302 21.7719 13.3594C23.6532 13.8649 25.2333 15.1418 26.1227 16.875ZM18.2281 13.3594C17.4999 14.4302 16.9643 15.6199 16.6453 16.875H13.8773C14.7667 15.1418 16.3468 13.8649 18.2281 13.3594ZM13.8773 23.125H16.6453C16.9643 24.3801 17.4999 25.5698 18.2281 26.6406C16.3468 26.1351 14.7667 24.8582 13.8773 23.125ZM21.7719 26.6406C22.5001 25.5698 23.0357 24.3801 23.3547 23.125H26.1227C25.2333 24.8582 23.6532 26.1351 21.7719 26.6406Z" fill="#0D1C1C"/>
</g>
<defs>
<clipPath id="clip0_475_867">
<rect width="20" height="20" fill="white" transform="translate(10 10)"/>
</clipPath>
</defs>
</svg>
